<svg width="390" height="689" viewBox="0 0 390 589" fill="none" xmlns="http://www.w3.org/2000/svg">
<g filter="url(#filter0_di_31_923)">
<path d="M-151.957 81.9307C-204.364 82.4815 -272 124.199 -272 124.199V1033H1434V124.199C1434 124.199 1375.12 85.859 1327.81 81.9307C1267.61 76.9324 1245.16 127.038 1184.68 124.199C1132.38 121.744 1087.72 62.4227 1064.64 81.9307C1041.55 101.439 977.333 128.96 914.582 124.199C864.861 120.426 851.465 81.316 801.464 81.9307C753.048 82.5258 741.328 122.521 692.963 124.199C639.807 126.043 623.831 81.6467 570.612 81.9307C518.2 82.2103 502.953 125.408 450.568 124.199C401.38 123.063 388.971 81.6233 339.759 81.9307C291.338 82.233 279.399 120.516 231.258 124.199C171.002 128.809 148.535 78.4159 88.1299 81.9307C37.4955 84.8769 23.4865 123.097 -27.2964 124.199C-81.3027 125.37 -97.9308 81.3628 -151.957 81.9307Z" fill="#AC7BEC"/>
<path d="M-151.957 81.9307C-204.364 82.4815 -272 124.199 -272 124.199V1033H1434V124.199C1434 124.199 1375.12 85.859 1327.81 81.9307C1267.61 76.9324 1245.16 127.038 1184.68 124.199C1132.38 121.744 1087.72 62.4227 1064.64 81.9307C1041.55 101.439 977.333 128.96 914.582 124.199C864.861 120.426 851.465 81.316 801.464 81.9307C753.048 82.5258 741.328 122.521 692.963 124.199C639.807 126.043 623.831 81.6467 570.612 81.9307C518.2 82.2103 502.953 125.408 450.568 124.199C401.38 123.063 388.971 81.6233 339.759 81.9307C291.338 82.233 279.399 120.516 231.258 124.199C171.002 128.809 148.535 78.4159 88.1299 81.9307C37.4955 84.8769 23.4865 123.097 -27.2964 124.199C-81.3027 125.37 -97.9308 81.3628 -151.957 81.9307Z" stroke="#AC7BEC"/>
</g>
<defs>
<filter id="filter0_di_31_923" x="-347.5" y="0.500305" width="1857" height="1106" filterUnits="userSpaceOnUse" color-interpolation-filters="sRGB">
<feFlood flood-opacity="0" result="BackgroundImageFix"/>
<feColorMatrix in="SourceAlpha" type="matrix" values="0 0 0 0 0 0 0 0 0 0 0 0 0 0 0 0 0 0 127 0" result="hardAlpha"/>
<feOffset dy="-2"/>
<feGaussianBlur stdDeviation="37.5"/>
<feComposite in2="hardAlpha" operator="out"/>
<feColorMatrix type="matrix" values="0 0 0 0 0 0 0 0 0 0 0 0 0 0 0 0 0 0 0.5 0"/>
<feBlend mode="normal" in2="BackgroundImageFix" result="effect1_dropShadow_31_923"/>
<feBlend mode="normal" in="SourceGraphic" in2="effect1_dropShadow_31_923" result="shape"/>
<feColorMatrix in="SourceAlpha" type="matrix" values="0 0 0 0 0 0 0 0 0 0 0 0 0 0 0 0 0 0 127 0" result="hardAlpha"/>
<feOffset dy="4"/>
<feGaussianBlur stdDeviation="25"/>
<feComposite in2="hardAlpha" operator="arithmetic" k2="-1" k3="1"/>
<feColorMatrix type="matrix" values="0 0 0 0 0 0 0 0 0 0 0 0 0 0 0 0 0 0 0.35 0"/>
<feBlend mode="normal" in2="shape" result="effect2_innerShadow_31_923"/>
</filter>
</defs>
</svg>
