<svg width="390" height="544" viewBox="0 0 390 844" fill="none" xmlns="http://www.w3.org/2000/svg">
<g filter="url(#filter0_di_31_932)">
<path d="M-151.957 -82.3366C-204.364 -81.5429 -272 -21.4351 -272 -21.4351V1288H1434V-21.4351C1434 -21.4351 1375.12 -76.6764 1327.81 -82.3366C1267.61 -89.5383 1245.16 -17.3442 1184.68 -21.4351C1132.38 -24.9726 1087.72 -110.444 1064.64 -82.3366C1041.55 -54.2288 977.333 -14.5749 914.582 -21.4351C864.861 -26.8707 851.465 -83.2221 801.464 -82.3366C753.048 -81.479 741.328 -23.8523 692.963 -21.4351C639.807 -18.7783 623.831 -82.7456 570.612 -82.3366C518.2 -81.9337 502.953 -19.6923 450.568 -21.4351C401.38 -23.0714 388.971 -82.7793 339.759 -82.3366C291.338 -81.9009 279.399 -26.7414 231.258 -21.4351C171.002 -14.7931 148.535 -87.4008 88.1299 -82.3366C37.4955 -78.0915 23.4865 -23.0224 -27.2964 -21.4351C-81.3027 -19.747 -97.9308 -83.1547 -151.957 -82.3366Z" fill="#AC7BEC"/>
<path d="M-151.957 -82.3366C-204.364 -81.5429 -272 -21.4351 -272 -21.4351V1288H1434V-21.4351C1434 -21.4351 1375.12 -76.6764 1327.81 -82.3366C1267.61 -89.5383 1245.16 -17.3442 1184.68 -21.4351C1132.38 -24.9726 1087.72 -110.444 1064.64 -82.3366C1041.55 -54.2288 977.333 -14.5749 914.582 -21.4351C864.861 -26.8707 851.465 -83.2221 801.464 -82.3366C753.048 -81.479 741.328 -23.8523 692.963 -21.4351C639.807 -18.7783 623.831 -82.7456 570.612 -82.3366C518.2 -81.9337 502.953 -19.6923 450.568 -21.4351C401.38 -23.0714 388.971 -82.7793 339.759 -82.3366C291.338 -81.9009 279.399 -26.7414 231.258 -21.4351C171.002 -14.7931 148.535 -87.4008 88.1299 -82.3366C37.4955 -78.0915 23.4865 -23.0224 -27.2964 -21.4351C-81.3027 -19.747 -97.9308 -83.1547 -151.957 -82.3366Z" stroke="#AC7BEC"/>
</g>
<defs>
<filter id="filter0_di_31_932" x="-347.5" y="-165.5" width="1857" height="1527" filterUnits="userSpaceOnUse" color-interpolation-filters="sRGB">
<feFlood flood-opacity="0" result="BackgroundImageFix"/>
<feColorMatrix in="SourceAlpha" type="matrix" values="0 0 0 0 0 0 0 0 0 0 0 0 0 0 0 0 0 0 127 0" result="hardAlpha"/>
<feOffset dy="-2"/>
<feGaussianBlur stdDeviation="37.5"/>
<feComposite in2="hardAlpha" operator="out"/>
<feColorMatrix type="matrix" values="0 0 0 0 0 0 0 0 0 0 0 0 0 0 0 0 0 0 0.5 0"/>
<feBlend mode="normal" in2="BackgroundImageFix" result="effect1_dropShadow_31_932"/>
<feBlend mode="normal" in="SourceGraphic" in2="effect1_dropShadow_31_932" result="shape"/>
<feColorMatrix in="SourceAlpha" type="matrix" values="0 0 0 0 0 0 0 0 0 0 0 0 0 0 0 0 0 0 127 0" result="hardAlpha"/>
<feOffset dy="4"/>
<feGaussianBlur stdDeviation="25"/>
<feComposite in2="hardAlpha" operator="arithmetic" k2="-1" k3="1"/>
<feColorMatrix type="matrix" values="0 0 0 0 0 0 0 0 0 0 0 0 0 0 0 0 0 0 0.35 0"/>
<feBlend mode="normal" in2="shape" result="effect2_innerShadow_31_932"/>
</filter>
</defs>
</svg>
