<svg width="390" height="889" viewBox="0 0 390 390" fill="none" xmlns="http://www.w3.org/2000/svg">
<g filter="url(#filter0_di_31_907)">
<path d="M-128.957 80.7023C-181.364 81.081 -249 109.762 -249 109.762V321L1457 315.412V109.762C1457 109.762 1398.12 83.4031 1350.81 80.7023C1290.61 77.266 1268.16 111.714 1207.68 109.762C1155.38 108.074 1110.72 67.2906 1087.64 80.7023C1064.55 94.114 1000.33 113.035 937.582 109.762C887.861 107.168 874.465 80.2798 824.464 80.7023C776.048 81.1115 764.328 108.608 715.963 109.762C662.807 111.029 646.831 80.5071 593.612 80.7023C541.2 80.8946 525.953 110.593 473.568 109.762C424.38 108.981 411.971 80.491 362.759 80.7023C314.338 80.9102 302.399 107.23 254.258 109.762C194.002 112.931 171.535 78.2859 111.13 80.7023C60.4955 82.7279 46.4865 109.004 -4.29636 109.762C-58.3027 110.567 -74.9307 80.3119 -128.957 80.7023Z" fill="#5B269F"/>
<path d="M-128.957 80.7023C-181.364 81.081 -249 109.762 -249 109.762V321L1457 315.412V109.762C1457 109.762 1398.12 83.4031 1350.81 80.7023C1290.61 77.266 1268.16 111.714 1207.68 109.762C1155.38 108.074 1110.72 67.2906 1087.64 80.7023C1064.55 94.114 1000.33 113.035 937.582 109.762C887.861 107.168 874.465 80.2798 824.464 80.7023C776.048 81.1115 764.328 108.608 715.963 109.762C662.807 111.029 646.831 80.5071 593.612 80.7023C541.2 80.8946 525.953 110.593 473.568 109.762C424.38 108.981 411.971 80.491 362.759 80.7023C314.338 80.9102 302.399 107.23 254.258 109.762C194.002 112.931 171.535 78.2859 111.13 80.7023C60.4955 82.7279 46.4865 109.004 -4.29636 109.762C-58.3027 110.567 -74.9307 80.3119 -128.957 80.7023Z" stroke="#5B269F"/>
</g>
<defs>
<filter id="filter0_di_31_907" x="-324.5" y="0.500061" width="1857" height="394.002" filterUnits="userSpaceOnUse" color-interpolation-filters="sRGB">
<feFlood flood-opacity="0" result="BackgroundImageFix"/>
<feColorMatrix in="SourceAlpha" type="matrix" values="0 0 0 0 0 0 0 0 0 0 0 0 0 0 0 0 0 0 127 0" result="hardAlpha"/>
<feOffset dy="-2"/>
<feGaussianBlur stdDeviation="37.5"/>
<feComposite in2="hardAlpha" operator="out"/>
<feColorMatrix type="matrix" values="0 0 0 0 0 0 0 0 0 0 0 0 0 0 0 0 0 0 0.5 0"/>
<feBlend mode="normal" in2="BackgroundImageFix" result="effect1_dropShadow_31_907"/>
<feBlend mode="normal" in="SourceGraphic" in2="effect1_dropShadow_31_907" result="shape"/>
<feColorMatrix in="SourceAlpha" type="matrix" values="0 0 0 0 0 0 0 0 0 0 0 0 0 0 0 0 0 0 127 0" result="hardAlpha"/>
<feOffset dy="4"/>
<feGaussianBlur stdDeviation="25"/>
<feComposite in2="hardAlpha" operator="arithmetic" k2="-1" k3="1"/>
<feColorMatrix type="matrix" values="0 0 0 0 0 0 0 0 0 0 0 0 0 0 0 0 0 0 0.35 0"/>
<feBlend mode="normal" in2="shape" result="effect2_innerShadow_31_907"/>
</filter>
</defs>
</svg>
