<svg width="390" height="255" viewBox="0 0 390 255" fill="none" xmlns="http://www.w3.org/2000/svg">
<g filter="url(#filter0_di_31_908)">
<path d="M-151.957 80.556C-204.364 80.9141 -272 108.041 -272 108.041V699H1434V108.041C1434 108.041 1375.12 83.1104 1327.81 80.556C1267.61 77.3057 1245.16 109.888 1184.68 108.041C1132.38 106.445 1087.72 67.8707 1064.64 80.556C1041.55 93.2412 977.333 111.137 914.582 108.041C864.861 105.588 851.465 80.1563 801.464 80.556C753.048 80.943 741.328 106.95 692.963 108.041C639.807 109.24 623.831 80.3713 570.612 80.556C518.2 80.7378 502.953 108.828 450.568 108.041C401.38 107.303 388.971 80.3561 339.759 80.556C291.338 80.7526 279.399 105.646 231.258 108.041C171.002 111.039 148.535 78.2704 88.1299 80.556C37.4955 82.4718 23.4865 107.325 -27.2964 108.041C-81.3027 108.803 -97.9308 80.1867 -151.957 80.556Z" fill="#AC7BEC"/>
<path d="M-151.957 80.556C-204.364 80.9141 -272 108.041 -272 108.041V699H1434V108.041C1434 108.041 1375.12 83.1104 1327.81 80.556C1267.61 77.3057 1245.16 109.888 1184.68 108.041C1132.38 106.445 1087.72 67.8707 1064.64 80.556C1041.55 93.2412 977.333 111.137 914.582 108.041C864.861 105.588 851.465 80.1563 801.464 80.556C753.048 80.943 741.328 106.95 692.963 108.041C639.807 109.24 623.831 80.3713 570.612 80.556C518.2 80.7378 502.953 108.828 450.568 108.041C401.38 107.303 388.971 80.3561 339.759 80.556C291.338 80.7526 279.399 105.646 231.258 108.041C171.002 111.039 148.535 78.2704 88.1299 80.556C37.4955 82.4718 23.4865 107.325 -27.2964 108.041C-81.3027 108.803 -97.9308 80.1867 -151.957 80.556Z" stroke="#AC7BEC"/>
</g>
<defs>
<filter id="filter0_di_31_908" x="-347.5" y="0.5" width="1857" height="772" filterUnits="userSpaceOnUse" color-interpolation-filters="sRGB">
<feFlood flood-opacity="0" result="BackgroundImageFix"/>
<feColorMatrix in="SourceAlpha" type="matrix" values="0 0 0 0 0 0 0 0 0 0 0 0 0 0 0 0 0 0 127 0" result="hardAlpha"/>
<feOffset dy="-2"/>
<feGaussianBlur stdDeviation="37.5"/>
<feComposite in2="hardAlpha" operator="out"/>
<feColorMatrix type="matrix" values="0 0 0 0 0 0 0 0 0 0 0 0 0 0 0 0 0 0 0.5 0"/>
<feBlend mode="normal" in2="BackgroundImageFix" result="effect1_dropShadow_31_908"/>
<feBlend mode="normal" in="SourceGraphic" in2="effect1_dropShadow_31_908" result="shape"/>
<feColorMatrix in="SourceAlpha" type="matrix" values="0 0 0 0 0 0 0 0 0 0 0 0 0 0 0 0 0 0 127 0" result="hardAlpha"/>
<feOffset dy="4"/>
<feGaussianBlur stdDeviation="25"/>
<feComposite in2="hardAlpha" operator="arithmetic" k2="-1" k3="1"/>
<feColorMatrix type="matrix" values="0 0 0 0 0 0 0 0 0 0 0 0 0 0 0 0 0 0 0.35 0"/>
<feBlend mode="normal" in2="shape" result="effect2_innerShadow_31_908"/>
</filter>
</defs>
</svg>
